<?xml version="1.0" encoding="UTF-8"?>
<svg id="Layer_1" xmlns="http://www.w3.org/2000/svg" version="1.1" viewBox="0 0 512 512">
  <!-- Generator: Adobe Illustrator 30.2.1, SVG Export Plug-In . SVG Version: 2.1.1 Build 1)  -->
  <defs>
    <style>
      .st0 {
        fill: #304f4f;
      }
    </style>
  </defs>
  <path class="st0" d="M52.42,102.11l70.52,115.48h2.38l70.72-115.48h51.5l-91.91,147.77,92.5,147.37h-51.9l-70.91-113.9h-2.38l-70.91,113.9H.33l94.09-147.37L.92,102.11h51.5Z"/>
  <path class="st0" d="M389.96,401.21c-25.35,0-48.07-6.07-68.14-18.22-20.07-12.15-35.85-29.55-47.34-52.2-11.49-22.65-17.23-49.62-17.23-80.92s5.77-58.66,17.33-81.31c11.55-22.65,27.33-40.04,47.34-52.19,20.01-12.15,42.69-18.22,68.04-18.22,15.58,0,30.21,2.25,43.88,6.73,13.67,4.49,25.92,11.03,36.74,19.61,10.83,8.59,19.77,19.08,26.84,31.5,7.06,12.41,11.79,26.48,14.16,42.19h-44.77c-1.72-9.64-4.92-18.12-9.61-25.45-4.69-7.33-10.43-13.53-17.23-18.62-6.8-5.08-14.4-8.91-22.78-11.49-8.39-2.58-17.27-3.86-26.64-3.86-16.91,0-32.12,4.26-45.66,12.78-13.54,8.52-24.17,21.06-31.89,37.64-7.73,16.57-11.59,36.81-11.59,60.71s3.89,44.27,11.69,60.71c7.79,16.44,18.42,28.89,31.89,37.34,13.47,8.45,28.59,12.68,45.36,12.68,9.38,0,18.22-1.25,26.54-3.76,8.32-2.51,15.91-6.27,22.78-11.29,6.86-5.02,12.64-11.12,17.33-18.32,4.69-7.2,7.95-15.55,9.8-25.06h44.77c-2.25,14.66-6.8,28.03-13.67,40.11-6.87,12.08-15.65,22.52-26.35,31.3-10.7,8.78-22.91,15.58-36.65,20.4-13.74,4.82-28.72,7.23-44.96,7.23Z"/>
</svg>
