<?xml version="1.0" encoding="UTF-8"?>
<svg id="Layer_1" xmlns="http://www.w3.org/2000/svg" version="1.1" viewBox="0 0 512 512">
  <!-- Generator: Adobe Illustrator 30.2.1, SVG Export Plug-In . SVG Version: 2.1.1 Build 1)  -->
  <defs>
    <style>
      .st0 {
        fill: #304f4f;
      }

      .st1 {
        fill: #f3f4f6;
      }
    </style>
  </defs>
  <rect class="st0" width="512" height="512" rx="32.23" ry="32.23"/>
  <path class="st1" d="M67.77,101.9l66.69,109.21h2.25l66.88-109.21h48.7l-86.92,139.75,87.48,139.37h-49.08l-67.06-107.72h-2.25l-67.06,107.72H18.51l88.98-139.37L19.06,101.9h48.7Z"/>
  <path class="st1" d="M378.48,384.76c-23.97,0-45.46-5.74-64.44-17.23-18.98-11.49-33.9-27.95-44.77-49.37-10.87-21.42-16.29-46.93-16.29-76.53s5.46-55.48,16.39-76.9c10.92-21.42,25.85-37.87,44.77-49.36,18.92-11.49,40.37-17.23,64.35-17.23,14.73,0,28.57,2.13,41.5,6.36,12.93,4.25,24.51,10.43,34.75,18.55,10.24,8.12,18.7,18.04,25.38,29.79,6.68,11.74,11.15,25.04,13.39,39.9h-42.34c-1.63-9.12-4.65-17.14-9.09-24.07-4.44-6.93-9.86-12.8-16.29-17.61-6.43-4.8-13.62-8.43-21.54-10.87-7.93-2.44-16.33-3.65-25.19-3.65-15.99,0-30.38,4.03-43.18,12.09-12.81,8.06-22.86,19.92-30.16,35.6-7.31,15.67-10.96,34.81-10.96,57.41s3.68,41.87,11.06,57.41c7.37,15.55,17.42,27.32,30.16,35.31,12.74,7.99,27.04,11.99,42.9,11.99,8.87,0,17.23-1.18,25.1-3.56s15.05-5.93,21.54-10.68c6.49-4.75,11.95-10.52,16.39-17.33,4.44-6.81,7.52-14.71,9.27-23.7h42.34c-2.13,13.86-6.43,26.51-12.93,37.93-6.5,11.42-14.8,21.3-24.92,29.6-10.12,8.3-21.67,14.73-34.66,19.29-12.99,4.56-27.16,6.84-42.52,6.84l.02-.02Z"/>
</svg>
